<?xml version="1.0" standalone="no"?>
<!DOCTYPE svg PUBLIC "-//W3C//DTD SVG 20010904//EN"
 "http://www.w3.org/TR/2001/REC-SVG-20010904/DTD/svg10.dtd">
<svg version="1.0" xmlns="http://www.w3.org/2000/svg"
 width="618.000000pt" height="375.000000pt" viewBox="0 0 618.000000 375.000000"
 preserveAspectRatio="xMidYMid meet">

<g transform="translate(0.000000,375.000000) scale(0.100000,-0.100000)"
fill="#000000" stroke="none">
<path d="M2845 3048 c-50 -17 -96 -58 -116 -102 -15 -34 -19 -66 -19 -178 l0
-138 -127 0 c-144 0 -188 -9 -234 -47 -60 -51 -69 -86 -69 -293 0 -159 3 -191
19 -225 22 -47 64 -89 104 -104 18 -7 152 -11 368 -11 l339 0 0 285 0 286 275
-3 c350 -4 319 18 323 -223 l3 -175 -30 -30 -29 -30 -186 0 -186 0 0 -186 0
-186 -29 -29 -29 -29 -172 0 -172 0 -29 29 c-27 27 -29 35 -29 100 l0 71 -55
0 -55 0 0 -77 c1 -117 37 -182 122 -218 29 -12 78 -15 218 -15 193 0 228 7
279 53 49 45 61 90 61 240 l0 137 133 0 c155 0 192 8 234 52 57 59 63 88 63
290 0 156 -3 189 -19 223 -22 50 -69 91 -119 105 -22 6 -170 10 -364 10 l-328
0 0 -285 0 -285 -271 0 -271 0 -29 29 -29 29 0 171 c0 165 1 171 24 198 l24
28 191 3 191 3 0 184 c0 180 1 184 24 212 l24 28 182 0 182 0 24 -28 c20 -24
24 -39 24 -98 l0 -69 55 0 55 0 0 78 c-1 121 -43 188 -139 221 -43 14 -365 13
-406 -1z"/>
<path d="M4144 1271 c-69 -31 -124 -127 -124 -216 0 -85 50 -179 114 -212 128
-67 278 -5 310 130 6 27 6 27 -43 27 -44 0 -49 -2 -55 -26 -12 -46 -50 -74
-102 -74 -39 0 -51 5 -79 33 -56 56 -60 174 -7 236 48 57 146 51 178 -10 13
-25 20 -29 59 -29 54 0 57 12 20 76 -46 79 -173 109 -271 65z"/>
<path d="M1120 1055 l0 -225 45 0 45 0 0 157 c0 86 3 153 7 149 4 -4 30 -73
58 -154 l51 -147 40 -3 41 -3 56 158 56 158 0 -157 1 -158 45 0 45 0 0 225 0
225 -69 0 -69 0 -48 -150 c-26 -82 -50 -150 -53 -150 -3 0 -29 66 -56 148
l-50 147 -72 3 -73 3 0 -226z"/>
<path d="M1780 1055 l0 -225 175 0 175 0 0 40 0 40 -125 0 -125 0 0 55 0 55
110 0 110 0 0 40 0 40 -110 0 -110 0 0 50 0 50 120 0 120 0 0 40 0 40 -170 0
-170 0 0 -225z"/>
<path d="M2270 1055 l0 -225 128 0 c102 0 135 4 168 19 75 34 109 110 103 233
-5 92 -35 145 -101 177 -38 18 -62 21 -171 21 l-127 0 0 -225z m240 130 c39
-20 63 -68 64 -130 1 -103 -40 -145 -143 -145 l-61 0 0 145 0 145 55 0 c31 0
69 -7 85 -15z"/>
<path d="M2820 1055 l0 -225 50 0 50 0 0 225 0 225 -50 0 -50 0 0 -225z"/>
<path d="M3050 1240 l0 -40 70 0 70 0 0 -185 0 -185 45 0 45 0 0 185 0 185 70
0 70 0 0 40 0 40 -185 0 -185 0 0 -40z"/>
<path d="M3550 1055 l0 -225 175 0 175 0 0 40 0 40 -125 0 -125 0 0 55 0 55
110 0 110 0 0 40 0 40 -110 0 -110 0 0 50 0 50 120 0 120 0 0 40 0 40 -170 0
-170 0 0 -225z"/>
<path d="M4590 1055 l0 -225 50 0 50 0 0 95 0 95 95 0 95 0 0 -95 0 -95 50 0
50 0 0 225 0 225 -50 0 -50 0 0 -85 0 -85 -95 0 -95 0 0 85 0 85 -50 0 -50 0
0 -225z"/>
<path d="M1866 577 c-29 -21 -16 -50 27 -60 27 -7 37 -14 35 -26 -3 -12 -14
-16 -48 -14 -41 2 -43 1 -26 -13 27 -19 49 -18 77 5 20 16 22 23 13 38 -6 10
-26 20 -45 23 -51 7 -46 35 5 34 36 -2 38 0 21 12 -24 17 -36 18 -59 1z"/>
<path d="M2002 532 c-13 -31 -26 -64 -29 -72 -6 -13 -4 -13 10 -1 11 9 32 12
62 9 25 -3 45 -4 45 -1 0 5 -60 123 -63 123 -1 0 -12 -26 -25 -58z m44 -9 c20
-27 17 -33 -16 -33 -28 0 -29 1 -18 25 13 30 17 30 34 8z"/>
<path d="M3563 584 c3 -4 -7 -33 -23 -65 -35 -69 -36 -73 -11 -59 27 14 88 13
94 -2 2 -7 7 -11 10 -8 9 8 -54 140 -66 140 -6 0 -8 -3 -4 -6z m37 -86 c0 -5
-11 -8 -25 -8 -29 0 -29 0 -13 35 l12 26 13 -23 c7 -13 12 -26 13 -30z"/>
<path d="M3686 577 c-29 -21 -16 -50 27 -60 27 -7 37 -14 35 -26 -3 -12 -14
-16 -48 -14 -41 2 -43 1 -26 -13 27 -19 49 -18 77 5 20 16 22 23 13 38 -6 10
-26 20 -45 23 -51 7 -46 35 5 34 36 -2 38 0 21 12 -24 17 -36 18 -59 1z"/>
<path d="M4063 584 c3 -3 -8 -33 -24 -67 -28 -59 -31 -83 -7 -59 15 15 88 16
88 1 0 -5 4 -7 10 -4 11 7 -49 135 -64 135 -5 0 -7 -3 -3 -6z m37 -86 c0 -4
-11 -8 -25 -8 -28 0 -30 3 -14 32 11 21 12 21 25 3 8 -10 14 -22 14 -27z"/>
<path d="M4346 569 c-35 -28 -35 -70 0 -98 15 -12 35 -21 46 -21 25 0 68 44
68 70 0 26 -43 70 -68 70 -11 0 -31 -9 -46 -21z m75 -9 c22 -12 26 -59 7 -78
-32 -32 -105 5 -91 47 15 41 44 52 84 31z"/>
<path d="M4506 577 c-23 -17 -17 -51 9 -56 11 -2 31 -7 44 -12 20 -8 21 -12
10 -25 -10 -12 -24 -14 -54 -10 l-40 5 32 -16 c43 -21 83 -6 83 32 0 19 -6 26
-27 31 -48 10 -53 13 -53 30 0 13 8 15 35 12 36 -4 47 5 19 16 -24 9 -38 7
-58 -7z"/>
<path d="M1528 573 c20 -4 22 -10 22 -58 0 -30 5 -57 10 -60 6 -4 10 16 10 54
0 57 1 60 28 64 15 2 0 4 -33 4 -33 0 -50 -2 -37 -4z"/>
<path d="M1641 535 c-3 -71 45 -106 97 -69 18 12 22 25 22 65 0 66 -18 63 -22
-3 -3 -47 -6 -53 -26 -56 -35 -5 -52 15 -52 64 0 58 -16 57 -19 -1z"/>
<path d="M2132 518 l-2 -68 39 0 c22 0 43 5 46 10 4 6 -10 10 -34 10 l-40 0
-4 58 -3 57 -2 -67z"/>
<path d="M2240 531 c0 -40 4 -53 22 -65 51 -36 98 -3 98 69 0 63 -18 57 -22
-7 l-3 -53 -35 0 -35 0 -3 53 c-4 66 -22 69 -22 3z"/>
<path d="M2396 563 c3 -10 5 -38 7 -63 l2 -45 39 1 c45 2 66 23 66 65 0 40
-24 59 -75 59 -36 0 -42 -3 -39 -17z m86 -10 c10 -9 18 -23 18 -31 0 -24 -31
-52 -57 -52 -21 0 -23 4 -23 50 0 45 2 50 22 50 12 0 30 -7 40 -17z"/>
<path d="M2592 518 l3 -63 48 -3 c28 -2 47 1 47 7 0 6 -18 11 -40 11 -33 0
-40 3 -40 20 0 15 7 20 24 20 14 0 28 5 31 10 4 6 -7 10 -24 10 -24 0 -31 4
-31 19 0 16 8 21 43 24 40 3 39 4 -11 5 l-53 2 3 -62z"/>
<path d="M2730 515 c0 -37 4 -65 10 -65 6 0 10 21 10 47 l0 47 45 -49 44 -50
-1 70 c-1 54 -2 59 -5 23 -2 -27 -7 -48 -11 -47 -4 0 -23 20 -42 44 -19 24
-38 44 -42 44 -5 1 -8 -28 -8 -64z"/>
<path d="M2933 518 c2 -63 2 -63 34 -66 18 -2 41 2 52 7 19 11 21 33 12 114
-1 4 -23 7 -51 7 l-49 0 2 -62z m82 32 c0 -10 -12 -16 -32 -18 -28 -3 -33 0
-33 18 0 18 5 21 33 18 20 -2 32 -8 32 -18z m10 -61 c0 -9 -14 -15 -37 -17
-32 -3 -38 0 -38 17 0 11 8 21 18 23 25 6 57 -7 57 -23z"/>
<path d="M3082 535 c-1 -27 2 -55 6 -62 11 -18 58 -26 81 -13 18 9 21 19 19
68 -1 53 -2 54 -5 12 -5 -52 -17 -70 -48 -70 -31 0 -43 18 -48 70 l-4 45 -1
-50z"/>
<path d="M3232 518 l3 -63 48 -3 c28 -2 47 1 47 7 0 6 -18 11 -40 11 -33 0
-40 3 -40 20 0 15 7 20 25 20 14 0 25 5 25 10 0 6 -11 10 -25 10 -18 0 -25 5
-25 19 0 15 8 21 38 24 33 3 33 4 -11 5 l-48 2 3 -62z"/>
<path d="M3368 513 c4 -68 22 -72 22 -5 l0 34 45 -49 44 -48 -1 70 c-1 54 -2
59 -5 23 -2 -27 -7 -48 -11 -48 -4 0 -23 20 -42 45 -19 24 -39 44 -45 45 -6 0
-9 -26 -7 -67z"/>
<path d="M3851 520 c2 -72 19 -92 19 -23 l1 48 23 -27 23 -26 21 26 21 27 0
-42 c1 -23 6 -45 11 -48 6 -4 10 18 10 59 0 36 -2 66 -5 66 -3 0 -18 -14 -34
-32 l-28 -31 -23 31 c-13 18 -28 32 -32 32 -5 0 -8 -27 -7 -60z"/>
<path d="M4172 519 c2 -72 18 -91 18 -22 l1 48 37 -43 c51 -58 62 -55 62 18 0
33 -4 60 -10 60 -5 0 -10 -21 -10 -47 l-1 -48 -42 48 c-24 26 -46 47 -50 47
-4 0 -6 -27 -5 -61z"/>
</g>
</svg>
